<svg xmlns="http://www.w3.org/2000/svg" version="1.1" x="0px" y="0px" viewBox="0 0 100 100" enable-background="new 0 0 100 100"><g fill="#8ccbff"><rect width="100%" height="100%" fill="#000"/><path fill-rule="evenodd" clip-rule="evenodd" d="M22.042,49.138h8.066c1.14,0,2.064-0.924,2.064-2.064s-0.925-2.064-2.064-2.064 h17.13c0.662-1.081,1.843-1.812,3.2-1.812c2.072,0,3.762,1.689,3.762,3.762c0,2.072-1.689,3.762-3.762,3.762 c-1.261,0-2.371-0.629-3.056-1.584h-13.56c4.438,3.905,10.254,6.282,16.615,6.282c9.927,0,18.51-5.784,22.609-14.147 c1.272-0.419,2.42-1.153,3.389-2.189c1.587-1.702,2.34-3.828,2.181-6.147l-0.832-12.083c-0.207-2.97-2.605-5.235-5.583-5.27 c-0.447-0.005-0.878-0.009-1.322-0.013C66.307,9.207,58.855,5.045,50.438,5.045S34.57,9.207,29.996,15.569 c-0.444,0.004-0.876,0.008-1.322,0.013c-2.978,0.035-5.377,2.3-5.583,5.27l-0.832,12.084c-0.159,2.321,0.595,4.446,2.183,6.148 c0.966,1.035,2.113,1.768,3.386,2.188c0.642,1.311,1.382,2.565,2.234,3.738h-8.02c-3.576,0-6.485-2.909-6.485-6.486V9.745 c0-1.14-0.924-2.064-2.064-2.064c-1.14,0-2.063,0.925-2.063,2.064v28.78C11.429,44.376,16.19,49.138,22.042,49.138z M27.21,21.137 c0.056-0.803,0.705-1.417,1.512-1.426c15.089-0.171,28.344-0.171,43.433,0c0.807,0.009,1.455,0.623,1.512,1.426l0.832,12.083 c0.082,1.183-0.272,2.18-1.08,3.047c-0.811,0.867-1.781,1.289-2.967,1.289h-8.622c-3.137,0-5.803-1.452-7.504-4.087L53.9,32.811 c-0.773-1.199-2.036-1.886-3.462-1.886c-1.428,0-2.691,0.688-3.462,1.884l-0.427,0.66c-1.701,2.635-4.365,4.087-7.503,4.087h-8.624 c-1.185,0-2.155-0.421-2.964-1.288c-0.81-0.868-1.163-1.864-1.082-3.048L27.21,21.137z"/><path fill-rule="evenodd" clip-rule="evenodd" d="M71.178,50.931c-5.312,5.319-12.646,8.616-20.739,8.616 c-7.963,0-15.187-3.199-20.475-8.371c-10.228,6.785-17.016,18.391-17.016,31.516v12.264h12.584v-10.02 c0-1.139,0.925-2.064,2.064-2.064s2.064,0.926,2.064,2.064v10.02h41.178v-10.02c0-1.139,0.923-2.064,2.063-2.064 s2.065,0.926,2.065,2.064v10.02h13.604V82.691C88.571,69.406,81.615,57.678,71.178,50.931z"/></g></svg>